<?xml version="1.0" encoding="UTF-8" standalone="no"?>
<svg
   version="1.1"
   viewBox="-10 0 3381 2500"
   id="svg103"
   sodipodi:docname="a.svg"
   inkscape:version="1.1.1 (c3084ef, 2021-09-22)"
   xmlns:inkscape="http://www.inkscape.org/namespaces/inkscape"
   xmlns:sodipodi="http://sodipodi.sourceforge.net/DTD/sodipodi-0.dtd"
   xmlns="http://www.w3.org/2000/svg"
   xmlns:svg="http://www.w3.org/2000/svg">
  <defs
     id="defs107" />
  <sodipodi:namedview
     id="namedview105"
     pagecolor="#ffffff"
     bordercolor="#666666"
     borderopacity="1.0"
     inkscape:pageshadow="2"
     inkscape:pageopacity="0.0"
     inkscape:pagecheckerboard="0"
     showgrid="false"
     inkscape:zoom="0.2876"
     inkscape:cx="1691.5855"
     inkscape:cy="1333.4492"
     inkscape:window-width="1296"
     inkscape:window-height="969"
     inkscape:window-x="0"
     inkscape:window-y="38"
     inkscape:window-maximized="0"
     inkscape:current-layer="svg103" />
  <path
     fill="currentColor"
     d="m 849.07311,1174.0989 h -37.49263 l 14.84083,-51.5524 q 10.93535,-38.2738 48.42798,-38.2738 189.02531,0 234.32891,-157.78141 32.8061,-114.82115 -61.7066,-114.82115 -94.51268,0 -128.88091,120.28883 l -10.15426,35.14931 -50.77126,-14.84081 q -35.93043,-10.15425 -25.77619,-45.30359 53.11455,-185.11982 241.35872,-185.11982 130.4431,0 189.8065,69.51757 59.3633,69.51754 25.7762,186.68201 -35.9305,124.19436 -203.0851,169.49796 18.7463,12.4975 36.7115,26.5573 128.0999,100.7613 85.1395,250.7319 -18.7463,65.612 -79.2813,107.0101 -60.5349,41.3982 -127.7092,53.1146 -67.17429,11.7164 -156.21928,11.7164 -135.12966,0 -237.06274,-79.6718 Q 505.39071,1437.3283 466.72644,1301.8081 428.06217,1166.2879 482.73891,974.9192 543.66443,762.46107 734.25194,591.01041 924.83945,419.55976 1241.1835,328.95258 l 35.1493,-10.15425 14.0598,51.55236 q 10.1543,35.14933 -24.9951,45.30359 -295.25446,84.35841 -468.65785,240.18713 -173.40339,155.82873 -227.29904,344.07287 -47.64687,166.37362 -16.40303,275.72702 31.24386,109.3535 108.96295,170.279 77.71909,60.9256 182.38599,60.9256 145.28393,0 183.55768,-133.5675 21.8707,-76.5475 -26.1667,-137.8635 -48.03749,-61.316 -152.70439,-61.316 z m 1352.85889,117.9455 -21.0896,73.423 q -66.3932,231.2045 -290.5678,231.2045 -107.7913,0 -239.0155,-41.398 -131.2242,-41.3981 -219.8786,-30.4628 -88.6545,10.9353 -169.8885,63.2688 -32.806,21.0896 -60.1445,-9.3732 l -28.9005,-32.0249 q 134.3486,-120.2889 248.7792,-138.6446 114.4306,-18.3557 267.1349,40.2265 152.7044,58.5822 227.6897,58.5822 130.443,0 178.0899,-166.3736 l 17.1841,-60.1444 q 0,-1.5621 -5.4676,-2.3432 l -44.5225,-4.6866 q -242.921,-25.7762 -326.8889,-85.5301 -83.9678,-59.7538 -83.9678,-158.1721 0,-115.60215 111.6968,-165.59234 l 28.1194,-12.49754 21.8708,49.20909 q 14.8408,33.58714 -19.5274,48.42798 -52.3335,23.43287 -52.3335,80.45281 0,64.05 73.8136,99.5898 73.8136,35.5399 272.9932,56.6296 l 44.5224,4.6865 q 5.4677,0 7.03,-5.4677 l 52.3334,-182.7765 q 80.4529,-280.41354 307.752,-280.41354 296.8166,0 210.896,299.94094 l -71.0798,247.6076 q 30.4628,10.9353 55.4578,24.214 99.9804,54.6767 181.9955,167.1546 l -42.9603,31.2438 q -29.6817,21.8708 -51.5524,-8.592 -47.6469,-65.6121 -131.2241,-111.6968 -17.9653,-9.3732 -32.8061,-14.8408 -3.1244,-0.7811 -3.9055,0 l -68.7364,239.7965 h -112.478 q -82.0151,0 -59.3633,-78.8907 l 57.8011,-201.5229 q 0.7811,-2.3432 -0.7811,-2.3432 -42.1791,-6.2488 -93.7315,-11.7165 L 2209.7429,1288.92 q -7.0298,0 -7.8109,3.1244 z m 328.0605,-321.81177 q 45.3036,-158.56249 -57.02,-158.56249 -133.5675,0 -195.2741,215.58256 l -49.2091,171.8412 v 1.5622 l 132.7864,14.0597 q 50.7712,5.4677 91.3883,11.7165 3.9054,0 4.6865,-3.1244 z"
     id="path101"
     style="stroke-width:0.781096" />
</svg>
