<?xml version="1.0" standalone="no"?>
<!DOCTYPE svg PUBLIC "-//W3C//DTD SVG 1.1//EN" "http://www.w3.org/Graphics/SVG/1.1/DTD/svg11.dtd" >
<svg xmlns="http://www.w3.org/2000/svg" xmlns:xlink="http://www.w3.org/1999/xlink" version="1.1" viewBox="-10 0 3340 2500">
   <path fill="currentColor"
d="M1649 1239q70 -244 -145 -244q-216 0 -295 276l-5 17h-69q-51 0 -37 -49q103 -359 439 -359q193 0 237 129q127 -129 349 -129q278 0 332 173q139 -173 361 -173q442 0 317 436l-196 684h-144q-105 0 -76 -101l186 -649q73 -255 -120 -255q-251 0 -365 398l-174 607h-144
q-105 0 -76 -101l186 -649q73 -255 -120 -255q-251 0 -330 276l-5 17h-69q-51 0 -37 -49zM1752 1794q-59 206 -528 206h-90q-311 0 -440.5 -127.5t-69.5 -336.5l97 -338q58 -203 -73 -203q-171 0 -250 276l-27 94q-95 331 41 549l25 40l-58 36q-40 25 -65 -15
q-163 -261 -54 -642l27 -94q103 -359 394 -359q380 0 270 384l-97 338q-38 133 44.5 208t268.5 75h57q382 0 417 -123q24 -83 -105 -120q-45 -13 -32 -58l19 -66l46 13q239 68 183 263z" />
</svg>
