<?xml version="1.0" encoding="UTF-8" standalone="no"?>
<svg
   version="1.1"
   viewBox="-4350 0 4350 2500"
   id="svg131"
   sodipodi:docname="cakra.svg"
   inkscape:version="1.1.1 (c3084ef, 2021-09-22)"
   xmlns:inkscape="http://www.inkscape.org/namespaces/inkscape"
   xmlns:sodipodi="http://sodipodi.sourceforge.net/DTD/sodipodi-0.dtd"
   xmlns="http://www.w3.org/2000/svg"
   xmlns:svg="http://www.w3.org/2000/svg">
  <defs
     id="defs135" />
  <sodipodi:namedview
     id="namedview133"
     pagecolor="#ffffff"
     bordercolor="#666666"
     borderopacity="1.0"
     inkscape:pageshadow="2"
     inkscape:pageopacity="0.0"
     inkscape:pagecheckerboard="0"
     showgrid="false"
     showguides="false"
     inkscape:zoom="0.13230749"
     inkscape:cx="2021.8054"
     inkscape:cy="1711.9212"
     inkscape:window-width="1296"
     inkscape:window-height="969"
     inkscape:window-x="0"
     inkscape:window-y="38"
     inkscape:window-maximized="0"
     inkscape:current-layer="svg131" />
  <path
     fill="currentColor"
     d="m -717.18174,1414.5352 q 17.1449,6.858 35.1471,13.716 152.59005,63.4363 248.60177,161.5911 96.01172,98.1549 96.01172,215.5978 0,171.4495 -162.4484,292.3214 -162.44839,120.8719 -478.77269,174.4498 -316.32426,53.578 -834.95906,53.578 -924.97,0 -1499.3258,-273.4619 -618.9327,-294.0359 -618.9327,-819.5286 0,-492.06014 304.3229,-930.11359 23.1456,-32.57541 56.5783,-10.28697 l 47.1486,33.43265 q -309.4663,445.76867 -309.4663,884.67941 0,485.2021 562.3543,752.6633 554.6391,264.0322 1457.3207,264.0322 392.6194,0 659.652,-35.1471 267.03256,-35.1472 435.91026,-135.0165 168.87776,-99.8693 168.87776,-251.6021 0,-96.0117 -69.00846,-173.164 -69.0084,-77.1523 -179.1647,-122.5864 -110.1563,-45.4341 -211.31146,-45.4341 h -75.4378 l 16.2877,-56.5784 q 12.0015,-42.0051 53.1494,-42.0051 217.74076,0 277.74816,-209.1684 h 123.4436 q 90.01098,0 65.15081,86.582 -33.43266,116.5857 -168.87771,171.4495 z"
     id="path129"
     style="stroke-width:0.857247" />
</svg>
