<?xml version="1.0" standalone="no"?>
<!DOCTYPE svg PUBLIC "-//W3C//DTD SVG 1.1//EN" "http://www.w3.org/Graphics/SVG/1.1/DTD/svg11.dtd" >
<svg xmlns="http://www.w3.org/2000/svg" xmlns:xlink="http://www.w3.org/1999/xlink" version="1.1" viewBox="-10 0 2647 2500">
   <path fill="currentColor"
d="M1493 1652q-4 -3 -5 1q-3 23 -3 43q0 88 28 138.5t63 50.5q34 0 39 -35q5 -36 -31 -96q-36 -59 -91 -102zM1373 1618q-14 2 -30 6q-86 24 -172 209q-78 167 -276 167q-183 0 -257 -127.5t-14 -336.5l97 -338q58 -203 -73 -203q-171 0 -250 276l-27 94q-95 331 41 549
l25 40l-58 36q-40 25 -65 -15q-163 -261 -54 -642l27 -94q103 -359 394 -359q380 0 270 384l-97 338q-38 133 -17 208t91 75q92 0 139 -101q109 -234 248 -272q45 -12 79 -13q6 0 7 -4q15 -63 35 -134q138 -481 609 -481q520 0 395 436l-196 684h-144q-105 0 -76 -101
l186 -649q73 -255 -198 -255q-351 0 -465 398q-21 73 -34 128q-1 3 3 5q14 8 27 18q90 71 143.5 159t42.5 163q-19 134 -153 134q-90 0 -148 -84t-58 -204q0 -39 7 -90q1 -5 -4 -4z" />
</svg>
