<?xml version="1.0" standalone="no"?>
<!DOCTYPE svg PUBLIC "-//W3C//DTD SVG 1.1//EN" "http://www.w3.org/Graphics/SVG/1.1/DTD/svg11.dtd" >
<svg xmlns="http://www.w3.org/2000/svg" xmlns:xlink="http://www.w3.org/1999/xlink" version="1.1" viewBox="-10 0 2647 2500">
   <path fill="currentColor"
d="M1798 1634q-105 366 -292 366q-155 0 -204 -170q-20 -70 -20 -159t-10 -89q-5 0 -13 20l-65 160q-96 238 -266 238h-33q-183 0 -257 -127.5t-14 -336.5l97 -338q58 -203 -73 -203q-171 0 -250 276l-27 94q-95 331 41 549l25 40l-58 36q-40 25 -65 -15q-163 -261 -54 -642
l27 -94q103 -359 394 -359q380 0 270 384l-97 338q-38 133 -17 208t91 75q92 0 159 -166l65 -160q46 -114 130 -114q115 0 115 141t20 211q25 88 89 88q100 0 181 -283l104 -363q103 -359 394 -359q380 0 270 384l-211 736h-144q-105 0 -76 -101l201 -701q58 -203 -73 -203
q-171 0 -250 276z" />
</svg>
