<?xml version="1.0" encoding="UTF-8" standalone="no"?>
<svg
   version="1.1"
   viewBox="-10 0 1954 2500"
   id="svg11"
   sodipodi:docname="dirgamure.svg"
   inkscape:version="1.1.1 (c3084ef, 2021-09-22)"
   xmlns:inkscape="http://www.inkscape.org/namespaces/inkscape"
   xmlns:sodipodi="http://sodipodi.sourceforge.net/DTD/sodipodi-0.dtd"
   xmlns="http://www.w3.org/2000/svg"
   xmlns:svg="http://www.w3.org/2000/svg">
  <defs
     id="defs15" />
  <sodipodi:namedview
     id="namedview13"
     pagecolor="#ffffff"
     bordercolor="#666666"
     borderopacity="1.0"
     inkscape:pageshadow="2"
     inkscape:pageopacity="0.0"
     inkscape:pagecheckerboard="0"
     showgrid="false"
     inkscape:zoom="0.22218107"
     inkscape:cx="717.88293"
     inkscape:cy="1302.9913"
     inkscape:window-width="1312"
     inkscape:window-height="969"
     inkscape:window-x="0"
     inkscape:window-y="38"
     inkscape:window-maximized="0"
     inkscape:current-layer="svg11" />
  <path
     fill="currentColor"
     d="m 726.77173,1455.511 h -89.0601 q -64.93966,0 -47.00394,-62.4657 L 705.12518,994.1302 q 35.87143,-125.55 -45.14853,-125.55 -105.75886,0 -154.61823,170.6985 l -31.54212,110.0882 q -40.20074,139.7749 8.65862,218.321 l 15.46182,24.7389 -35.87142,22.265 q -24.73893,15.4618 -40.20075,-9.2771 -65.55813,-105.1404 -16.69877,-275.8389 l 31.54212,-110.0882 q 63.70271,-222.03177 243.67834,-222.03177 140.39336,0 172.55396,84.73081 97.10025,-119.36529 269.03578,-119.36529 304.9071,0 227.598,269.65415 l -254.1924,886.8903 q -62.4657,217.7024 0,273.9834 l -28.4497,31.5422 q -19.1727,21.6466 -40.8193,2.4738 -68.03199,-61.2288 -86.58617,-149.0519 -18.5542,-87.8232 13.6064,-199.7668 L 1207.3252,991.6563 q 45.1486,-157.71059 -105.7589,-157.71059 -196.67436,0 -265.32486,239.34909 z M 922.20918,439.97842 q 90.29702,56.28108 106.99582,110.0882 16.6987,53.80713 -4.0201,100.81112 -20.7188,47.00391 -101.73877,97.7187 l -22.8835,14.22491 -22.26503,-35.87142 q -15.46182,-24.73893 9.2771,-39.58231 29.6867,-18.55417 32.16059,-39.27307 2.47389,-20.71881 -15.46182,-38.34528 -17.93572,-17.62648 -60.61035,-44.22081 -49.47784,-30.92368 -73.28904,-69.88743 -23.81122,-38.96384 -23.81122,-79.78299 0,-62.46583 41.74693,-103.28502 41.74692,-40.81921 113.48978,-40.81921 54.42562,0 104.52193,29.06822 59.3734,34.016 77.3091,96.48175 l 8.0402,27.83135 -40.2008,11.75095 q -28.4497,8.04016 -36.4899,-19.79111 -9.8955,-34.63448 -43.29307,-53.80721 -35.25297,-20.40957 -69.88746,-20.40957 -27.2128,0 -38.96379,9.89555 -11.75099,9.89556 -11.75099,23.502 0,13.60644 10.82328,23.19276 10.82327,9.58632 60.30111,40.50992 z"
     id="path9"
     style="stroke-width:0.618473" />
</svg>
