<?xml version="1.0" standalone="no"?>
<!DOCTYPE svg PUBLIC "-//W3C//DTD SVG 1.1//EN" "http://www.w3.org/Graphics/SVG/1.1/DTD/svg11.dtd" >
<svg xmlns="http://www.w3.org/2000/svg" xmlns:xlink="http://www.w3.org/1999/xlink" version="1.1" viewBox="-10 0 2647 2500">
   <path fill="currentColor"
d="M1035 1049l15 10q190 128 370 128q63 0 100 -18q35 -17 43 -45q15 -52 -48 -90q-65 -39 -190 -39q-115 0 -235 35q-27 8 -55 19zM915 1107q-43 24 -89 54q-144 95 -259.5 235t-156.5 283q-26 91 -14.5 130.5t43 57.5t95.5 18q90 0 444 -129t704 -129q424 0 767 309
l-37 41q-35 39 -77 12q-326 -210 -697 -210q-388 0 -691 110.5t-446 110.5q-137 0 -215.5 -36.5t-110.5 -129t5 -221.5q51 -178 211.5 -334.5t356.5 -250.5t340 -121t237 -27q157 0 249 55q139 84 100 221q-22 76 -104 116q-61 30 -150 30q-216 0 -434 -147z" />
</svg>
