<?xml version="1.0" standalone="no"?>
<!DOCTYPE svg PUBLIC "-//W3C//DTD SVG 1.1//EN" "http://www.w3.org/Graphics/SVG/1.1/DTD/svg11.dtd" >
<svg xmlns="http://www.w3.org/2000/svg" xmlns:xlink="http://www.w3.org/1999/xlink" version="1.1" viewBox="-10 0 3340 2500">
   <path fill="currentColor"
d="M2187 1109q189 -229 512 -229q559 0 434 436l-196 684h-144q-105 0 -76 -101l186 -649q73 -255 -237 -255q-404 0 -553 520l-139 485h-144q-105 0 -76 -101l186 -649q73 -255 -237 -255q-402 0 -551 514l-141 491h-144q-105 0 -76 -101l170 -593q73 -255 -176 -255
q-324 0 -423 346q-38 132 -5.5 251.5t116.5 194.5l35 32l-46 51q-31 35 -66 3q-109 -98 -150.5 -249t5.5 -315q123 -429 567 -429q333 0 387 196q192 -252 531 -252q405 0 451 229z" />
</svg>
