<?xml version="1.0" standalone="no"?>
<!DOCTYPE svg PUBLIC "-//W3C//DTD SVG 1.1//EN" "http://www.w3.org/Graphics/SVG/1.1/DTD/svg11.dtd" >
<svg xmlns="http://www.w3.org/2000/svg" xmlns:xlink="http://www.w3.org/1999/xlink" version="1.1" viewBox="-10 0 3340 2500">
   <path fill="currentColor"
d="M2455 1053q138 -173 361 -173q442 0 317 436l-196 684h-144q-105 0 -76 -101l186 -649q73 -255 -120 -255q-251 0 -365 398l-174 607h-144q-105 0 -76 -101l186 -649q73 -255 -120 -255q-251 0 -365 398l-71 248q-103 359 -520 359h-19q-292 0 -421.5 -127.5
t-69.5 -336.5l97 -338q58 -203 -73 -203q-171 0 -250 276l-27 94q-95 331 41 549l25 40l-58 36q-40 25 -65 -15q-163 -261 -54 -642l27 -94q103 -359 394 -359q380 0 270 384l-97 338q-38 133 44.5 208t268.5 75q297 0 376 -276l71 -248q138 -481 509 -481q278 0 332 173z
" />
</svg>
