<?xml version="1.0" standalone="no"?>
<!DOCTYPE svg PUBLIC "-//W3C//DTD SVG 1.1//EN" "http://www.w3.org/Graphics/SVG/1.1/DTD/svg11.dtd" >
<svg xmlns="http://www.w3.org/2000/svg" xmlns:xlink="http://www.w3.org/1999/xlink" version="1.1" viewBox="-10 0 2647 2500">
   <path fill="currentColor"
d="M1326 1428q441 -320 902 -389q-160 -44 -316 -44q-462 0 -586 433zM1531 1428q259 1 427.5 50.5t256.5 182.5t39 304l-10 35h-144q-105 0 -76 -101q37 -129 -18 -211.5t-159.5 -113t-265.5 -31.5h-288q-37 129 34 235.5t279 106.5h120l-19 66q-14 49 -63 49h-529
q-292 0 -421.5 -127.5t-69.5 -336.5l97 -338q58 -203 -73 -203q-171 0 -250 276l-27 94q-95 331 41 549l25 40l-58 36q-40 25 -65 -15q-163 -261 -54 -642l27 -94q103 -359 394 -359q380 0 270 384l-97 338q-38 133 44.5 208t268.5 75h96q-17 -18 -30 -39
q-103 -153 -51 -335l33 -115q148 -516 730 -516q273 0 542 131q42 21 21 63l-29 62q-483 0 -948 292z" />
</svg>
