<?xml version="1.0" standalone="no"?>
<!DOCTYPE svg PUBLIC "-//W3C//DTD SVG 1.1//EN" "http://www.w3.org/Graphics/SVG/1.1/DTD/svg11.dtd" >
<svg xmlns="http://www.w3.org/2000/svg" xmlns:xlink="http://www.w3.org/1999/xlink" version="1.1" viewBox="-10 0 3340 2500">
   <path fill="currentColor"
d="M1396 1652q-3 24 -3 44q0 88 28 138.5t63 50.5q34 0 39 -35q5 -36 -31 -96q-31 -52 -95 -105q-1 1 -1 3zM1284 1576q-41 -21 -96 -41q-117 -41 -303 -41l-145 506h-144q-105 0 -76 -101l201 -701q58 -203 -73 -203q-171 0 -250 276l-67 234q-81 282 -2 409l25 40l-58 36
q-40 25 -65 -15q-106 -170 -11 -502l67 -234q103 -359 394 -359q380 0 270 384l-33 115q172 0 308 47q47 17 82 33q9 4 10 -1q10 -42 26 -97q138 -481 662 -481q365 0 438 186q141 -186 372 -186q442 0 317 436l-196 684h-144q-105 0 -76 -101l186 -649q73 -255 -120 -255
q-251 0 -365 398l-174 607h-144q-105 0 -76 -101l186 -649q73 -255 -237 -255q-404 0 -518 398q-21 72 -34 128v1q15 10 30 22q90 71 143.5 159t42.5 163q-19 134 -153 134q-90 0 -148 -84t-58 -204q0 -53 13 -129q0 -4 -7 -7z" />
</svg>
