<?xml version="1.0" standalone="no"?>
<!DOCTYPE svg PUBLIC "-//W3C//DTD SVG 1.1//EN" "http://www.w3.org/Graphics/SVG/1.1/DTD/svg11.dtd" >
<svg xmlns="http://www.w3.org/2000/svg" xmlns:xlink="http://www.w3.org/1999/xlink" version="1.1" viewBox="-10 0 3340 2500">
   <path fill="currentColor"
d="M944 1074q157 -194 435 -194q493 0 368 436l-82 286q-38 133 14.5 208t165.5 75h158q296 0 375 -276l106 -370q103 -359 394 -359q380 0 270 384l-211 736h-144q-105 0 -76 -101l201 -701q58 -203 -73 -203q-171 0 -250 276l-106 370q-103 359 -519 359h-158
q-267 0 -353 -124t-24 -340l82 -286q73 -255 -171 -255q-318 0 -428 384l-178 621h-144q-105 0 -76 -101l185 -645q58 -203 -73 -203q-171 0 -250 276l-51 178q-65 226 14 353l25 40l-58 36q-40 25 -65 -15q-106 -170 -27 -446l51 -178q103 -359 394 -359q227 0 279 138z
" />
</svg>
