<?xml version="1.0" standalone="no"?>
<!DOCTYPE svg PUBLIC "-//W3C//DTD SVG 1.1//EN" "http://www.w3.org/Graphics/SVG/1.1/DTD/svg11.dtd" >
<svg xmlns="http://www.w3.org/2000/svg" xmlns:xlink="http://www.w3.org/1999/xlink" version="1.1" viewBox="-10 0 2647 2500">
   <path fill="currentColor"
d="M1181 1285h295l-19 66q-14 49 -62 49h-205q-144 0 -226.5 54t-109.5 148q-38 133 44.5 208t268.5 75h143q296 0 375 -276l106 -370q103 -359 394 -359q380 0 270 384l-211 736h-144q-105 0 -76 -101l201 -701q58 -203 -73 -203q-171 0 -250 276l-106 370
q-103 359 -519 359h-162q-292 0 -421.5 -127.5t-69.5 -336.5q34 -117 137 -184q33 -22 75 -37q-9 -7 -16 -15q-100 -99 -56 -252q9 -32 26 -53h-26q-287 0 -366 276l-27 94q-95 331 41 549l25 40l-58 36q-40 25 -65 -15q-163 -261 -54 -642l27 -94q103 -359 510 -359h843
l-19 66q-14 49 -62 49h-364q-86 0 -135.5 31.5t-65.5 87.5q-23 80 26.5 125.5t160.5 45.5z" />
</svg>
