<?xml version="1.0" encoding="UTF-8" standalone="no"?>
<svg
   version="1.1"
   viewBox="-214 0 2851 2500"
   id="svg11"
   sodipodi:docname="o.svg"
   inkscape:version="1.1.1 (c3084ef, 2021-09-22)"
   xmlns:inkscape="http://www.inkscape.org/namespaces/inkscape"
   xmlns:sodipodi="http://sodipodi.sourceforge.net/DTD/sodipodi-0.dtd"
   xmlns="http://www.w3.org/2000/svg"
   xmlns:svg="http://www.w3.org/2000/svg">
  <defs
     id="defs15" />
  <sodipodi:namedview
     id="namedview13"
     pagecolor="#ffffff"
     bordercolor="#666666"
     borderopacity="1.0"
     inkscape:pageshadow="2"
     inkscape:pageopacity="0.0"
     inkscape:pagecheckerboard="0"
     showgrid="false"
     inkscape:zoom="0.2876"
     inkscape:cx="1423.8526"
     inkscape:cy="1291.7246"
     inkscape:window-width="1312"
     inkscape:window-height="969"
     inkscape:window-x="0"
     inkscape:window-y="38"
     inkscape:window-maximized="0"
     inkscape:current-layer="svg11" />
  <path
     fill="currentColor"
     d="m 1888.7013,1193.7612 q -49.9068,173.9996 -389.1385,173.9996 h -273.1387 q -239.41797,0 -415.10353,72.1626 -175.68558,72.1625 -275.83647,182.4297 -100.15089,110.2671 -127.80197,206.7088 -17.53484,61.3719 -9.77905,88.0113 7.75579,26.6394 31.02317,38.779 23.26738,12.1394 55.63939,12.1394 80.25559,0 376.66176,-125.7786 296.4061,-125.7788 527.7311,-125.7788 194.9064,0 318.9992,107.9067 l -30.3488,34.3952 q -20.2326,24.279 -44.5116,3.3721 -78.2323,-68.116 -266.3946,-68.116 -192.8832,0 -489.28929,125.7787 -296.40617,125.7787 -415.10353,125.7787 -95.76718,0 -147.36006,-28.6627 -51.59288,-28.6627 -69.46492,-86.9998 -17.87206,-58.337 7.08137,-145.3368 34.39526,-120.0462 158.15073,-238.0691 123.75548,-118.023 331.47584,-187.1507 207.72037,-69.1276 506.48706,-69.1276 h 273.1387 q 171.3019,0 218.511,-164.5577 L 1875.8875,652.879 q 39.1161,-136.90661 -49.2324,-136.90661 h -302.1388 q 22.9302,21.58135 43.1627,49.23243 93.0694,127.46478 39.1162,315.62705 -89.6975,312.92933 -466.6964,312.92933 h -12.814 q -196.92968,0 -284.26665,-85.988 -87.33697,-85.9883 -46.87197,-226.94133 L 861.56461,652.879 q 39.11617,-136.90661 -49.23242,-136.90661 -115.32528,0 -168.6042,186.13904 l -18.20925,63.39517 q -64.0696,223.23201 27.65109,370.2548 l 16.86041,26.9766 -39.11617,24.279 q -26.97667,16.8605 -43.83709,-10.1162 -109.92993,-176.0228 -36.4185,-432.97554 l 18.20925,-63.39517 q 69.46493,-242.11562 265.72021,-242.11562 256.27826,0 182.09256,258.97604 l -65.41846,227.9529 q -25.62784,89.69739 30.01155,140.27869 55.63941,50.5812 181.08091,50.5812 296.069,0 369.5804,-256.95276 43.1627,-150.39495 -27.3139,-246.83654 -70.4765,-96.44161 -195.2437,-96.44161 h -32.3719 l 12.8138,-44.5115 q 9.4419,-33.04642 41.8139,-33.04642 h 517.2776 q 256.2784,0 182.0926,258.97604 z"
     id="path9"
     style="stroke-width:0.674417" />
</svg>
