<?xml version="1.0" encoding="UTF-8" standalone="no"?>
<svg
   version="1.1"
   viewBox="-2769 0 3902 2500"
   id="svg826"
   sodipodi:docname="pengkal.svg"
   inkscape:version="1.1.1 (c3084ef, 2021-09-22)"
   xmlns:inkscape="http://www.inkscape.org/namespaces/inkscape"
   xmlns:sodipodi="http://sodipodi.sourceforge.net/DTD/sodipodi-0.dtd"
   xmlns="http://www.w3.org/2000/svg"
   xmlns:svg="http://www.w3.org/2000/svg">
  <defs
     id="defs830" />
  <sodipodi:namedview
     id="namedview828"
     pagecolor="#ffffff"
     bordercolor="#666666"
     borderopacity="1.0"
     inkscape:pageshadow="2"
     inkscape:pageopacity="0.0"
     inkscape:pagecheckerboard="0"
     showgrid="false"
     inkscape:zoom="0.099468248"
     inkscape:cx="5.0267298"
     inkscape:cy="1352.1903"
     inkscape:window-width="1312"
     inkscape:window-height="969"
     inkscape:window-x="0"
     inkscape:window-y="38"
     inkscape:window-maximized="0"
     inkscape:current-layer="svg826" />
  <path
     fill="currentColor"
     d="m -1368.4654,1433.6163 q -1053,0 -1162,381 -59,205 195,356 257,153 712,153 753,0 954,-701 l 54,-189 z m 1764,426 426,-1485.99998 q 58,-203 -73,-203 -171,0 -250,276 l -144,502 q -139,484.99998 -676,484.99998 h -45 l -73,255 q -215,750 -1217,750 -452,0 -739,-170 -329,-195 -246,-486 133,-464 1306,-464 h 753 l 41,-143 29,-101 h 144 q 105,0 76,101 l -41,143 h 45 q 417,0 532,-400.99998 l 144,-503 q 103,-359 394,-359 380,0 270,384 l -426,1485.99998 q -101,352 0,443 l -46,51 q -31,35 -66,4 -110,-99 -140,-241 -30,-142 22,-323 z"
     id="path824" />
</svg>
