<?xml version="1.0" encoding="UTF-8" standalone="no"?>
<svg
   version="1.1"
   viewBox="-2021 0 2209 2500"
   id="svg11"
   sodipodi:docname="pepet.svg"
   inkscape:version="1.1.1 (c3084ef, 2021-09-22)"
   xmlns:inkscape="http://www.inkscape.org/namespaces/inkscape"
   xmlns:sodipodi="http://sodipodi.sourceforge.net/DTD/sodipodi-0.dtd"
   xmlns="http://www.w3.org/2000/svg"
   xmlns:svg="http://www.w3.org/2000/svg">
  <defs
     id="defs15" />
  <sodipodi:namedview
     id="namedview13"
     pagecolor="#ffffff"
     bordercolor="#666666"
     borderopacity="1.0"
     inkscape:pageshadow="2"
     inkscape:pageopacity="0.0"
     inkscape:pagecheckerboard="0"
     showgrid="false"
     inkscape:zoom="0.15450917"
     inkscape:cx="-87.373454"
     inkscape:cy="1530.6535"
     inkscape:window-width="1312"
     inkscape:window-height="969"
     inkscape:window-x="0"
     inkscape:window-y="38"
     inkscape:window-maximized="0"
     inkscape:current-layer="svg11" />
  <path
     fill="currentColor"
     d="m -1397.7021,1568.2222 q -155.3916,0 -257.704,-92.3118 -102.3123,-92.3119 -126.9288,-233.4722 -24.6165,-141.1602 26.9243,-321.16837 88.4656,-308.47552 346.1696,-495.40707 256.1654,-186.16229 585.41106,-186.16229 206.1632,0 356.93927,77.69583 150.77606,77.69583 236.16455,196.16274 85.38849,118.46691 113.85132,273.85857 28.462823,155.39166 -26.9243,348.47729 -37.69402,131.5445 -141.92951,248.4728 -104.2355,116.9284 -238.08772,183.8545 l -37.69402,-36.9247 q -25.38576,-25.3858 0,-50.7715 70.00318,-70.0032 136.54466,-166.9307 66.54147,-96.9275 104.23549,-228.4719 34.61695,-120.77469 33.46306,-230.77968 -1.1539,-110.00499 -51.92544,-233.08749 -50.77153,-123.0825 -181.54669,-208.08636 -130.77516,-85.00385 -328.47647,-85.00385 -274.62776,0 -507.71526,169.23844 -233.0875,169.23844 -313.0911,448.48187 -46.1559,160.77647 -25.7704,276.55097 20.3855,115.7745 98.8506,186.5469 78.4651,70.7725 199.2398,70.7725 121.544,0 213.0866,-61.5413 l 30.7706,-20.7701 29.2321,43.8481 q 20.0009,30.0014 -10.0004,50.0023 -113.8513,76.9265 -263.0889,76.9265 z"
     id="path9"
     style="stroke-width:0.769266" />
</svg>
