<?xml version="1.0" standalone="no"?>
<!DOCTYPE svg PUBLIC "-//W3C//DTD SVG 1.1//EN" "http://www.w3.org/Graphics/SVG/1.1/DTD/svg11.dtd" >
<svg xmlns="http://www.w3.org/2000/svg" xmlns:xlink="http://www.w3.org/1999/xlink" version="1.1" viewBox="-10 0 2647 2500">
   <path fill="currentColor"
d="M1349 1158q239 -278 657 -278q559 0 434 436l-196 684h-144q-105 0 -76 -101l186 -649q73 -255 -237 -255q-556 0 -741 646l-103 359h-144q-105 0 -76 -101l186 -649q73 -255 -192 -255q-235 0 -323 26q-121 36 -141 107q-12 42 43 87q32 26 150 60l-19 65q-13 46 -58 33
q-94 -27 -146 -69q-114 -92 -81 -208q38 -132 219 -185q106 -31 389 -31q410 0 413 278z" />
</svg>
