<?xml version="1.0" standalone="no"?>
<!DOCTYPE svg PUBLIC "-//W3C//DTD SVG 1.1//EN" "http://www.w3.org/Graphics/SVG/1.1/DTD/svg11.dtd" >
<svg xmlns="http://www.w3.org/2000/svg" xmlns:xlink="http://www.w3.org/1999/xlink" version="1.1" viewBox="-10 0 2647 2500">
   <path fill="currentColor"
d="M754 1578l13 -45q1 -5 -1 -4q-5 2 -11 5q-63 31 -99 98.5t-36 125t33 57.5t101 -237zM1456 1885q150 0 229 -276l106 -370q103 -359 394 -359q380 0 270 384l-211 736h-144q-105 0 -76 -101l201 -701q58 -203 -73 -203q-171 0 -250 276l-106 370q-103 359 -340 359
q-227 0 -366 -327q-32 -75 -75 -113q-5 -4 -6 -3l-25 87q-49 171 -125.5 263.5t-162.5 92.5t-138.5 -66t-52.5 -165t51.5 -195.5t142.5 -140.5q51 -25 102 -36q5 -1 6 -4l56 -195q58 -203 -135 -203q-251 0 -330 276l-67 234q-81 282 -2 409l25 40l-58 36q-40 25 -65 -15
q-106 -170 -11 -502l67 -234q103 -359 474 -359q442 0 332 384l-50 174l10 6q88 56 143 184q109 257 260 257z" />
</svg>
