<?xml version="1.0" standalone="no"?>
<!DOCTYPE svg PUBLIC "-//W3C//DTD SVG 1.1//EN" "http://www.w3.org/Graphics/SVG/1.1/DTD/svg11.dtd" >
<svg xmlns="http://www.w3.org/2000/svg" xmlns:xlink="http://www.w3.org/1999/xlink" version="1.1" viewBox="-10 0 3340 2500">
   <path fill="currentColor"
d="M2440 1072q142 -192 376 -192q442 0 317 436l-196 684h-144q-105 0 -76 -101l186 -649q73 -255 -120 -255q-251 0 -365 398l-174 607h-144q-105 0 -76 -101l186 -649q73 -255 -289 -255q-471 0 -537 231q-32 110 83 171l124 66q222 118 168 307q-66 230 -482 230h-162
q-292 0 -421.5 -127.5t-69.5 -336.5l97 -338q58 -203 -73 -203q-171 0 -250 276l-27 94q-95 331 41 549l25 40l-58 36q-40 25 -65 -15q-163 -261 -54 -642l27 -94q103 -359 394 -359q380 0 270 384l-97 338q-38 133 44.5 208t268.5 75h143q296 0 338 -147q29 -100 -111 -174
l-124 -66q-197 -105 -140 -304q90 -314 681 -314q405 0 486 192z" />
</svg>
