<?xml version="1.0" encoding="UTF-8" standalone="no"?>
<svg
   version="1.1"
   viewBox="-10 0 1954 2500"
   id="svg1125"
   sodipodi:docname="taling.svg"
   inkscape:version="1.1.1 (c3084ef, 2021-09-22)"
   xmlns:inkscape="http://www.inkscape.org/namespaces/inkscape"
   xmlns:sodipodi="http://sodipodi.sourceforge.net/DTD/sodipodi-0.dtd"
   xmlns="http://www.w3.org/2000/svg"
   xmlns:svg="http://www.w3.org/2000/svg">
  <defs
     id="defs1129" />
  <sodipodi:namedview
     id="namedview1127"
     pagecolor="#ffffff"
     bordercolor="#666666"
     borderopacity="1.0"
     inkscape:pageshadow="2"
     inkscape:pageopacity="0.0"
     inkscape:pagecheckerboard="0"
     showgrid="false"
     inkscape:zoom="0.19916146"
     inkscape:cx="399.17362"
     inkscape:cy="1368.2366"
     inkscape:window-width="1296"
     inkscape:window-height="969"
     inkscape:window-x="0"
     inkscape:window-y="38"
     inkscape:window-maximized="0"
     inkscape:current-layer="svg1125" />
  <path
     fill="currentColor"
     d="m 762.72734,1224.3563 h -113.3497 q -82.65083,0 -59.82346,-79.5022 L 735.17707,637.14183 q 45.65474,-159.7916 -57.46201,-159.7916 -134.60278,0 -196.78769,217.25361 l -40.14468,140.11283 q -51.1648,177.89603 11.02011,277.86423 l 19.67877,31.486 -45.65475,28.3374 q -31.48603,19.6788 -51.1648,-11.8072 -83.43798,-133.8156 -21.25307,-351.06925 l 40.14469,-140.11284 q 81.07653,-282.58712 310.1374,-282.58712 178.68322,0 219.61506,107.83966 123.5827,-151.9201 342.4106,-151.9201 388.0653,0 289.6715,343.19773 l -323.519,1128.77412 q -79.5022,277.0771 0,348.7078 l -36.2089,40.1447 q -24.4017,27.5503 -51.952,3.1486 -86.5866,-77.9279 -110.2011,-189.7033 -23.6145,-111.7755 17.3173,-254.2497 l 323.519,-1128.77417 q 57.462,-200.72344 -134.6028,-200.72344 -250.31393,0 -337.68767,304.62734 z"
     id="path1123"
     style="stroke-width:0.787151" />
</svg>
