<?xml version="1.0" encoding="UTF-8" standalone="no"?>
<svg
   version="1.1"
   viewBox="-2922 0 2922 2500"
   id="svg11"
   sodipodi:docname="talingtarung.svg"
   inkscape:version="1.1.1 (c3084ef, 2021-09-22)"
   xmlns:inkscape="http://www.inkscape.org/namespaces/inkscape"
   xmlns:sodipodi="http://sodipodi.sourceforge.net/DTD/sodipodi-0.dtd"
   xmlns="http://www.w3.org/2000/svg"
   xmlns:svg="http://www.w3.org/2000/svg">
  <defs
     id="defs15" />
  <sodipodi:namedview
     id="namedview13"
     pagecolor="#ffffff"
     bordercolor="#666666"
     borderopacity="1.0"
     inkscape:pageshadow="2"
     inkscape:pageopacity="0.0"
     inkscape:pagecheckerboard="0"
     showgrid="false"
     inkscape:zoom="0.21828219"
     inkscape:cx="1646.9507"
     inkscape:cy="1184.2469"
     inkscape:window-width="1312"
     inkscape:window-height="969"
     inkscape:window-x="0"
     inkscape:window-y="38"
     inkscape:window-maximized="0"
     inkscape:current-layer="svg11" />
  <g
     id="g9" />
  <path
     d="m -1083.6736,935.04264 q 0,24.69907 -23.8008,24.69907 -26.0464,0 -26.0464,-24.69907 0,-25.14812 26.0464,-25.14812 23.8008,0 23.8008,25.14812 z m -73.648,-48.94906 q 0,24.25 -23.801,24.25 -25.5972,0 -25.5972,-24.25 0,-25.14814 25.5972,-25.14814 23.801,0 23.801,25.14814 z m 123.0462,122.14812 q 0,25.5972 -25.5972,25.5972 -24.25,0 -24.25,-25.5972 0,-24.24998 25.1481,-24.24998 24.6991,0 24.6991,24.24998 z m 17.9629,86.6712 q 0,24.6991 -24.2499,24.6991 -25.5973,0 -25.5973,-24.6991 0,-24.699 25.5973,-24.699 24.2499,0 24.2499,24.699 z m -227.2314,-227.23135 q 0,25.59722 -25.1481,25.59722 -24.6991,0 -24.6991,-25.59722 0,-24.24999 24.6991,-24.24999 25.1481,0 25.1481,24.24999 z m -86.2221,18.41203 q 0,24.25 -25.1482,24.25 -24.25,0 -24.25,-24.25 0,-25.14814 24.25,-25.14814 25.1482,0 25.1482,25.14814 z m 295.4906,295.49062 q 0,24.25 -25.5972,24.25 -24.25,0 -24.25,-24.25 0,-25.5972 24.25,-25.5972 25.5972,0 25.5972,25.5972 z m -368.6897,-246.54156 q 0,24.69907 -25.1481,24.69907 -24.6991,0 -24.6991,-23.35181 0,-26.49538 24.6991,-26.49538 25.1481,0 25.1481,25.14812 z m 319.2915,321.08786 q 0,24.25 -23.8008,24.25 -26.0464,0 -26.0464,-24.25 0,-25.5972 26.0464,-25.5972 23.8008,0 23.8008,25.5972 z m -73.648,48.5 q 0,23.8009 -23.801,23.8009 -25.5972,0 -25.5972,-23.8009 0,-26.0463 25.5972,-26.0463 23.801,0 23.801,26.0463 z m -295.0417,-296.3888 q 0,25.5972 -23.8009,25.5972 -26.0462,0 -26.0462,-25.5972 0,-24.24998 25.1481,-24.24998 24.699,0 24.699,24.24998 z m -17.9629,86.6712 q 0.449,24.6991 -23.801,24.6991 -26.0462,0 -26.0462,-24.6991 0,-24.699 26.0462,-24.699 24.25,0 23.801,24.699 z m 226.7823,226.3334 q 0,25.1481 -25.1481,25.1481 -24.6991,0 -24.6991,-25.1481 0,-24.6992 24.6991,-24.6992 25.1481,0 25.1481,24.6992 z m -208.8194,-139.6621 q 0,24.25 -24.699,24.25 -25.1481,0 -25.1481,-24.25 0,-25.5972 25.1481,-25.5972 24.699,0 24.699,25.5972 z m 122.5973,121.25 q 0,25.5972 -25.1482,25.5972 -24.25,0 -24.25,-23.8009 0,-26.0463 24.25,-26.0463 25.1482,0 25.1482,24.25 z m -73.1991,-46.7037 q 0,24.25 -25.1481,24.25 -24.6991,0 -24.6991,-24.25 0,-25.5972 24.6991,-25.5972 25.1481,0 25.1481,25.5972 z"
     style="font-size:1286.3px;line-height:1.25;font-family:'nyk Ngayogyan Jejeg';-inkscape-font-specification:'nyk Ngayogyan Jejeg';stroke-width:70.1673"
     id="path165" />
  <path
     fill="currentColor"
     d="m -392.04193,1173.6306 -137.06033,95.8673 q -57.67019,40.444 -57.67019,79.3901 0,23.9669 16.4772,36.3248 16.4772,12.3579 50.92952,12.3579 84.63288,0 124.32795,-81.637 15.72823,-31.4565 47.1847,-16.4772 l 45.68678,22.4689 q -78.64117,161.7761 -217.19943,161.7761 -95.86734,0 -146.04789,-48.3082 -50.18056,-48.3081 -50.18056,-128.4472 0,-126.5749 167.39335,-244.1621 167.39336,-117.58727 187.61537,-187.98983 19.47305,-68.15566 -9.73653,-105.97832 -29.20957,-37.82266 -75.64531,-37.82266 -128.07277,0 -187.24089,206.7139 -9.73653,34.45232 -44.18885,24.7158 l -48.68263,-14.23031 9.73653,-34.4523 q 77.14324,-268.8779 295.09163,-268.8779 134.81344,0 199.59879,85.00736 64.78535,85.00737 30.33302,204.8415 -35.20128,122.82996 -200.72223,238.91936 z"
     id="path141"
     style="stroke-width:0.748964" />
  <path
     fill="currentColor"
     d="m -2422.8661,1438.783 h -104.9012 q -76.4904,0 -55.3645,-73.5765 l 134.7689,-469.86976 q 42.2519,-147.8815 -53.1791,-147.8815 -124.5701,0 -182.1201,201.06057 l -37.1524,129.66949 q -47.3513,164.6365 10.1987,257.1535 l 18.212,29.1393 -42.2519,26.2252 q -29.1391,18.212 -47.3512,-10.9271 -77.2189,-123.8417 -19.669,-324.9023 l 37.1525,-129.66946 q 75.0335,-261.52443 287.0213,-261.52443 165.365,0 203.246,99.8018 114.3714,-140.5967 316.8889,-140.5967 359.1408,0 268.0807,317.61741 l -299.4054,1044.64068 q -73.5765,256.4251 0,322.7168 l -33.5101,37.1525 q -22.5828,25.4968 -48.0797,2.9139 -80.1328,-72.1195 -101.9872,-175.5637 -21.8543,-103.4442 16.0266,-235.2992 l 299.4054,-1044.64067 q 53.179,-185.76249 -124.5701,-185.76249 -231.6568,0 -312.5181,281.92189 z"
     id="path149"
     style="stroke-width:0.72848" />
</svg>
