<?xml version="1.0" encoding="UTF-8" standalone="no"?>
<svg
   version="1.1"
   viewBox="-214 0 2851 2500"
   id="svg115"
   sodipodi:docname="u.svg"
   inkscape:version="1.1.1 (c3084ef, 2021-09-22)"
   xmlns:inkscape="http://www.inkscape.org/namespaces/inkscape"
   xmlns:sodipodi="http://sodipodi.sourceforge.net/DTD/sodipodi-0.dtd"
   xmlns="http://www.w3.org/2000/svg"
   xmlns:svg="http://www.w3.org/2000/svg">
  <defs
     id="defs119" />
  <sodipodi:namedview
     id="namedview117"
     pagecolor="#ffffff"
     bordercolor="#666666"
     borderopacity="1.0"
     inkscape:pageshadow="2"
     inkscape:pageopacity="0.0"
     inkscape:pagecheckerboard="0"
     showgrid="false"
     inkscape:zoom="0.2876"
     inkscape:cx="1423.8526"
     inkscape:cy="1291.7246"
     inkscape:window-width="1296"
     inkscape:window-height="969"
     inkscape:window-x="0"
     inkscape:window-y="38"
     inkscape:window-maximized="0"
     inkscape:current-layer="svg115" />
  <path
     fill="currentColor"
     d="m 1580.8928,992.08792 q -39.7805,138.89448 -356.0015,138.89448 h -60.6822 q -209.69042,0 -297.00521,-85.9662 Q 779.8891,959.04981 820.34383,818.13257 L 885.74565,590.2376 q 39.10622,-136.87182 -49.21993,-136.87182 -115.29598,0 -168.56138,186.09173 l -18.20462,63.37907 q -64.05332,223.17535 27.64406,370.16082 l 16.85613,26.97 -39.10623,24.2727 q -26.96983,16.8561 -43.82596,-10.1137 Q 501.4257,938.14831 574.91846,681.26075 l 18.20464,-63.37906 q 69.44728,-242.05415 265.65271,-242.05415 256.21329,0 182.04629,258.91031 l -65.40181,227.89487 q -25.62136,89.67478 30.00391,140.24308 55.6253,50.5685 181.0351,50.5685 h 38.432 q 257.5616,0 281.1603,-82.93222 16.1818,-55.96242 -70.7959,-80.90942 -30.3409,-8.76523 -21.5758,-39.10632 l 12.8106,-44.50018 31.0154,8.76515 q 161.1447,45.84872 123.3869,177.32661 z m 331.7287,138.89448 q -49.8941,173.9555 -389.0396,173.9555 h -273.0694 q -239.3572,0 -414.99814,72.1443 -175.64096,72.1443 -275.76642,182.3835 -100.12546,110.2391 -127.76953,206.6562 -17.53038,61.3564 -9.77655,87.9889 7.7538,26.6327 31.01528,38.7692 23.26148,12.1363 55.62525,12.1363 80.23523,0 376.56613,-125.7467 296.33098,-125.7468 527.59718,-125.7468 194.8569,0 318.9181,107.8793 l -30.3411,34.3866 q -20.2274,24.2727 -44.5001,3.3711 -78.2125,-68.0987 -266.327,-68.0987 -192.8343,0 -489.16518,125.7468 -296.33091,125.7467 -414.99811,125.7467 -95.74288,0 -147.32266,-28.6553 -51.57977,-28.6557 -69.44727,-86.9777 -17.86752,-58.3222 7.07956,-145.3 34.38652,-120.0158 158.11057,-238.0087 123.72406,-117.993 331.39167,-187.1031 207.66761,-69.1101 506.35852,-69.1101 h 273.0693 q 171.2584,0 218.4556,-164.5159 l 125.4095,-437.58544 q 49.22,-171.93258 -80.9093,-171.93258 -169.2357,0 -222.5011,186.09173 l -3.3712,11.46222 h -46.5229 q -34.3865,0 -24.9471,-33.03804 47.1972,-164.51591 -97.7656,-164.51591 -145.637,0 -198.9023,186.09173 l -3.3713,11.46222 h -46.5231 q -34.3864,0 -24.947,-33.03804 69.4474,-242.05415 295.9938,-242.05415 130.1294,0 159.7962,86.97769 85.6291,-86.97769 235.3117,-86.97769 298.0164,0 213.7357,293.97108 z"
     id="path113"
     style="stroke-width:0.674246" />
</svg>
