<?xml version="1.0" standalone="no"?>
<!DOCTYPE svg PUBLIC "-//W3C//DTD SVG 1.1//EN" "http://www.w3.org/Graphics/SVG/1.1/DTD/svg11.dtd" >
<svg xmlns="http://www.w3.org/2000/svg" xmlns:xlink="http://www.w3.org/1999/xlink" version="1.1" viewBox="-10 0 2647 2500">
   <path fill="currentColor"
d="M1385 995h-48l19 -66q14 -49 62 -49h767q380 0 270 384l-211 736h-144q-105 0 -76 -101l201 -701q58 -203 -73 -203h-448q34 32 64 73q138 189 58 468q-133 464 -692 464h-19q-292 0 -421.5 -127.5t-69.5 -336.5l97 -338q58 -203 -73 -203q-171 0 -250 276l-27 94
q-95 331 41 549l25 40l-58 36q-40 25 -65 -15q-163 -261 -54 -642l27 -94q103 -359 394 -359q380 0 270 384l-97 338q-38 133 44.5 208t268.5 75q439 0 548 -381q64 -223 -40.5 -366t-289.5 -143z" />
</svg>
