<?xml version="1.0" standalone="no"?>
<!DOCTYPE svg PUBLIC "-//W3C//DTD SVG 1.1//EN" "http://www.w3.org/Graphics/SVG/1.1/DTD/svg11.dtd" >
<svg xmlns="http://www.w3.org/2000/svg" xmlns:xlink="http://www.w3.org/1999/xlink" version="1.1" viewBox="-10 0 3340 2500">
   <path fill="currentColor"
d="M398 1271l-27 94q-95 331 41 549l25 40l-58 36q-40 25 -65 -15q-163 -261 -54 -642l27 -94q103 -359 394 -359q380 0 270 384l-97 338q-38 133 14.5 208t165.5 75q167 0 228 -213l124 -433q103 -359 393 -359q380 0 270 384l-97 338q-38 133 14.5 208t165.5 75
q167 0 228 -213l124 -433q103 -359 394 -359q380 0 270 384l-211 736h-144q-105 0 -76 -101l201 -701q58 -203 -73 -203q-171 0 -250 276l-124 433q-85 296 -372 296h-82q-185 0 -271 -124t-24 -340l97 -338q58 -203 -73 -203q-170 0 -249 276l-124 433q-85 296 -372 296
h-82q-185 0 -271 -124t-24 -340l97 -338q58 -203 -73 -203q-171 0 -250 276z" />
</svg>
